<svg xmlns="http://www.w3.org/2000/svg" xmlns:xlink="http://www.w3.org/1999/xlink" viewBox="0 0 2000 2000">
<path fill-rule="nonzero" fill="rgb(0, 83, 177)" fill-opacity="1" d="M 889.984375 1480.394531 C 889.890625 1480.949219 889.160156 1481.121094 888.796875 1480.675781 C 880.417969 1470.023438 871.398438 1460.523438 860.847656 1451.21875 C 833.332031 1426.976562 803.84375 1405.355469 772.425781 1386.320312 C 772.09375 1386.125 772.097656 1385.996094 772.445312 1385.957031 C 772.570312 1385.941406 772.710938 1385.988281 772.851562 1386.050781 C 808.472656 1403.027344 845.496094 1416.152344 883.894531 1425.414062 C 886.691406 1426.105469 891.667969 1426.804688 898.785156 1427.535156 C 899.394531 1427.589844 899.644531 1427.941406 899.542969 1428.539062 Z M 1143.851562 620.359375 C 1143.949219 620.140625 1144.171875 620.019531 1144.421875 620.011719 L 1152.558594 619.75 C 1153.230469 619.71875 1153.5 620.570312 1152.941406 620.929688 L 1141.25 628.550781 C 1140.71875 628.910156 1140.039062 628.308594 1140.308594 627.71875 Z M 1165.519531 559.179688 C 1165.769531 558.53125 1166.230469 558.230469 1166.910156 558.308594 C 1187.789062 560.371094 1208.429688 558.859375 1228.839844 553.808594 C 1228.910156 553.78125 1228.988281 553.820312 1229.011719 553.898438 C 1229.050781 553.96875 1229.03125 554.039062 1228.960938 554.089844 C 1228.191406 554.558594 1227.378906 554.980469 1226.539062 555.359375 C 1199.640625 567.019531 1174.578125 581.761719 1151.359375 599.578125 C 1151.078125 599.789062 1150.699219 599.5 1150.820312 599.171875 Z M 1189.441406 495.058594 L 1201.519531 462.460938 C 1202.089844 460.921875 1203.519531 459.871094 1205.148438 459.738281 C 1223.25 458.410156 1240.808594 453.949219 1257.859375 446.390625 C 1259.339844 445.730469 1260.859375 445.21875 1262.460938 444.820312 C 1262.988281 444.691406 1263.011719 444.769531 1262.550781 445.058594 C 1237.210938 460 1212.46875 476.148438 1190.070312 495.488281 C 1189.308594 496.128906 1189.089844 495.980469 1189.441406 495.058594 M 1201.921875 439.191406 C 1206.789062 412.28125 1209.339844 385.359375 1210.25 358.03125 C 1210.261719 357.839844 1210.351562 357.730469 1210.550781 357.738281 C 1210.738281 357.75 1210.910156 357.820312 1211.050781 357.949219 C 1211.199219 358.101562 1211.261719 358.308594 1211.269531 358.628906 C 1211.679688 372.71875 1213.140625 386.730469 1215.609375 400.609375 C 1216.410156 405.140625 1215.859375 409.449219 1213.980469 413.609375 C 1209.570312 423.289062 1205.988281 431.949219 1203.25 439.570312 C 1201.351562 444.828125 1200.910156 444.699219 1201.921875 439.191406 M 1264.640625 317.46875 C 1264.921875 317.328125 1264.960938 317.378906 1264.738281 317.589844 C 1256.980469 325.601562 1250.390625 334.371094 1245.011719 343.890625 C 1244.960938 343.941406 1244.910156 343.980469 1244.828125 343.941406 C 1244.761719 343.921875 1244.71875 343.839844 1244.738281 343.769531 C 1247.289062 331.609375 1253.921875 322.828125 1264.640625 317.46875 M 1265.890625 272.621094 L 1266.78125 271.671875 C 1269.828125 268.460938 1272.769531 266.308594 1273.390625 266.890625 L 1273.460938 266.949219 C 1273.460938 266.949219 1273.46875 266.96875 1273.449219 266.96875 L 1261.578125 279.550781 C 1261.578125 279.550781 1261.558594 279.558594 1261.558594 279.53125 L 1261.480469 279.480469 C 1260.890625 278.910156 1262.851562 275.820312 1265.890625 272.621094 M 1068.738281 838.820312 C 1133.621094 848.710938 1202.660156 840.289062 1263.730469 823.839844 C 1316.800781 809.53125 1368.21875 790.769531 1418.011719 767.519531 C 1432.359375 760.820312 1446.660156 754.109375 1460.898438 747.390625 C 1461.230469 747.230469 1461.089844 746.730469 1460.710938 746.75 C 1392.199219 752.398438 1324.160156 758.679688 1256.53125 771.53125 C 1202.761719 781.730469 1150.558594 797.191406 1099.910156 817.921875 C 1089.75 822.078125 1079.808594 826.710938 1070.109375 831.789062 C 1069.359375 832.199219 1069.101562 831.980469 1069.378906 831.160156 L 1087.191406 777.570312 C 1087.421875 776.871094 1088.121094 776.460938 1088.839844 776.589844 C 1122.269531 782.789062 1158.25 779.171875 1191.371094 772.640625 C 1279.570312 755.261719 1363.089844 720.449219 1440.910156 676.109375 C 1441.511719 675.769531 1441.46875 675.628906 1440.800781 675.71875 C 1403.929688 680 1366.96875 685.089844 1329.960938 690.988281 C 1246.429688 704.300781 1166.800781 729.660156 1091.058594 767.121094 C 1090.339844 767.46875 1090.109375 767.269531 1090.378906 766.53125 L 1107.5 718.410156 C 1107.710938 717.820312 1108.289062 717.441406 1108.898438 717.46875 C 1138.628906 719.039062 1166.410156 715.890625 1196.671875 708.828125 C 1288.480469 687.429688 1370.691406 647.148438 1448.460938 594.230469 C 1449.820312 593.308594 1449.691406 592.988281 1448.058594 593.269531 C 1413.289062 599.621094 1378.300781 606.609375 1343.101562 614.25 C 1271.421875 629.808594 1200.621094 653.148438 1135.460938 687 C 1130.441406 689.609375 1123.308594 694.171875 1114.109375 700.679688 C 1113.460938 701.140625 1113.25 701.011719 1113.519531 700.25 L 1129.101562 656.820312 C 1129.359375 656.089844 1129.871094 655.75 1130.640625 655.800781 C 1149.71875 657.070312 1169.550781 655.558594 1190.089844 651.289062 C 1219.519531 645.171875 1246.648438 637.289062 1271.480469 627.660156 C 1335.359375 602.878906 1394.621094 569.828125 1449.238281 528.519531 C 1449.5 528.339844 1449.460938 528.269531 1449.140625 528.339844 L 1327.808594 556.769531 C 1327.769531 556.78125 1327.730469 556.761719 1327.710938 556.71875 C 1327.679688 556.679688 1327.710938 556.640625 1327.738281 556.609375 C 1366.851562 532.648438 1404.871094 507.058594 1441.769531 479.808594 C 1442.730469 479.109375 1442.660156 478.929688 1441.511719 479.261719 C 1399.320312 491.660156 1357.261719 505.171875 1315.359375 519.75 C 1315.128906 519.820312 1315.121094 519.800781 1315.320312 519.699219 C 1368.070312 492.5 1416.5 458.890625 1460.640625 418.871094 C 1460.769531 418.738281 1460.648438 418.550781 1460.480469 418.601562 C 1419.78125 433.089844 1379.03125 447.628906 1338.261719 462.25 C 1293.300781 478.371094 1249.980469 498.050781 1208.308594 521.308594 C 1196.25 528.050781 1184.488281 535.949219 1172.941406 544.019531 C 1171.820312 544.808594 1171.5 544.558594 1171.960938 543.269531 L 1183.589844 510.988281 C 1184.019531 509.769531 1185.179688 508.941406 1186.460938 508.910156 C 1209.859375 508.378906 1232.660156 503.691406 1254.929688 494.859375 C 1296.171875 478.511719 1334.269531 456.699219 1369.261719 429.460938 C 1400.070312 405.46875 1428.269531 378.730469 1453.910156 349.238281 C 1454.179688 348.929688 1453.839844 348.480469 1453.460938 348.660156 C 1404.949219 371.191406 1356.929688 394.71875 1309.429688 419.289062 C 1305.480469 421.339844 1305.398438 421.191406 1309.179688 418.859375 C 1360.289062 387.328125 1405.070312 348.96875 1448.480469 307.378906 C 1448.679688 307.199219 1448.699219 306.890625 1448.558594 306.679688 C 1448.410156 306.46875 1448.128906 306.390625 1447.890625 306.5 C 1410.210938 324.039062 1372.789062 342.519531 1335.640625 361.929688 C 1291.230469 385.109375 1246.109375 411.78125 1208.320312 444.890625 C 1207.300781 445.769531 1207.039062 445.589844 1207.519531 444.328125 C 1211.871094 433.210938 1215.960938 422.589844 1218.960938 411.089844 C 1219.128906 410.429688 1219.550781 410.160156 1220.210938 410.25 C 1222.839844 410.648438 1225.449219 410.480469 1228.011719 409.769531 C 1254.828125 402.429688 1277.21875 389.648438 1302.71875 372.03125 C 1354.210938 336.429688 1400.089844 294.75 1440.359375 247.03125 C 1440.859375 246.429688 1440.761719 246.308594 1440.089844 246.691406 C 1409.578125 263.410156 1379.371094 280.871094 1349.441406 299.070312 C 1305.71875 325.621094 1266.128906 353.691406 1230.960938 391.089844 C 1229.78125 392.339844 1229.5 392.160156 1230.128906 390.570312 L 1236.519531 374.230469 C 1236.769531 373.578125 1237.289062 373.070312 1237.929688 372.820312 C 1245.648438 369.859375 1251.460938 366.871094 1255.378906 363.851562 C 1316.480469 316.601562 1371.078125 261.679688 1419.121094 199.058594 C 1420.660156 197.019531 1421.851562 195.28125 1422.679688 193.839844 C 1423.320312 192.710938 1423.121094 192.511719 1422.050781 193.28125 C 1402.25 207.441406 1382.390625 221.441406 1362.449219 235.328125 C 1332.128906 256.449219 1304.058594 279.398438 1278.210938 304.121094 C 1275.378906 306.820312 1275.269531 306.730469 1277.921875 303.828125 C 1323.878906 253.390625 1365.609375 200.980469 1402.789062 143.230469 C 1405.019531 139.761719 1404.558594 139.359375 1401.410156 142.03125 C 1357.101562 179.421875 1314.910156 217.160156 1275.359375 264.449219 C 1275.21875 264.621094 1275.039062 264.71875 1274.769531 264.75 C 1274.300781 264.78125 1274.210938 264.621094 1274.5 264.261719 C 1285.738281 249.980469 1294.089844 237.390625 1299.578125 226.46875 C 1320.050781 185.609375 1336.609375 143.328125 1349.269531 99.621094 C 1349.359375 99.300781 1348.949219 99.101562 1348.75 99.351562 C 1319.96875 134.429688 1291.410156 173.128906 1271.558594 213.96875 C 1271.480469 214.121094 1271.300781 214.210938 1271.128906 214.160156 C 1270.96875 214.101562 1270.859375 213.921875 1270.890625 213.738281 L 1287.238281 105.589844 C 1287.308594 105.148438 1286.710938 104.921875 1286.488281 105.320312 C 1248.679688 171.238281 1222.789062 240.558594 1213.988281 316.019531 C 1213.820312 317.480469 1213.761719 317.480469 1213.78125 316.019531 L 1216.171875 124.261719 C 1216.179688 123.859375 1215.621094 123.738281 1215.46875 124.121094 C 1197.960938 168.28125 1183.160156 215.289062 1175.820312 262.160156 C 1164.671875 333.269531 1167.5 404.148438 1184.320312 474.78125 C 1186.230469 482.78125 1172.179688 512.488281 1168.289062 520.96875 C 1168.128906 521.308594 1167.609375 521.179688 1167.628906 520.800781 C 1169.480469 475.058594 1169.128906 429.238281 1166.53125 383.351562 C 1162.449219 311.289062 1156.949219 239.480469 1149.960938 167.878906 C 1149.960938 167.808594 1149.910156 167.769531 1149.839844 167.761719 C 1149.78125 167.761719 1149.730469 167.800781 1149.699219 167.871094 C 1141.691406 197.5 1135.039062 226.390625 1129.808594 254.558594 C 1112.171875 349.691406 1117.328125 454.578125 1158.410156 543.429688 C 1158.660156 544.011719 1158.679688 544.660156 1158.449219 545.25 L 1138.859375 593.839844 C 1138.800781 593.980469 1138.601562 593.941406 1138.601562 593.789062 C 1137.71875 571.460938 1135.960938 549.21875 1133.300781 527.089844 C 1126.191406 467.480469 1116.269531 408.371094 1103.558594 349.730469 C 1094.089844 306.058594 1082.410156 262.609375 1071.070312 219.429688 C 1071 219.191406 1070.679688 219.230469 1070.660156 219.460938 C 1067.890625 247.140625 1065.980469 277.070312 1064.980469 302.621094 C 1062.039062 377.679688 1071.75 451.339844 1094.140625 523.601562 C 1103.339844 553.320312 1115.210938 581.75 1129.71875 608.839844 C 1130.421875 610.160156 1130.539062 611.730469 1130.011719 613.128906 L 1113.640625 657.339844 C 1113.25 658.398438 1112.960938 658.378906 1112.828125 657.25 C 1111.171875 644.128906 1109.738281 634.640625 1108.519531 628.761719 C 1085.480469 516.808594 1049.921875 412.050781 1014.5 305.808594 C 1012.421875 299.539062 1010.519531 293.191406 1008.78125 286.738281 C 1008.421875 285.429688 1008.21875 285.441406 1008.191406 286.820312 C 1006.730469 344.621094 1008.960938 402.378906 1018.71875 460.859375 C 1028.96875 522.351562 1048.898438 580.488281 1078.511719 635.28125 C 1086.378906 649.839844 1095.300781 663.398438 1105.300781 675.988281 C 1105.871094 676.710938 1106.019531 677.691406 1105.710938 678.558594 L 1091.210938 718.769531 C 1090.980469 719.398438 1090.789062 719.390625 1090.609375 718.730469 C 1082.601562 686.839844 1072.398438 655.71875 1060.050781 625.339844 C 1029.148438 549.339844 994.609375 475.019531 956.484375 402.378906 C 948.695312 387.570312 941.632812 372.640625 934.296875 357.699219 C 933.695312 356.5 933.480469 356.558594 933.675781 357.898438 C 938.898438 395.699219 945.753906 433.429688 954.214844 471.121094 C 969.726562 540.128906 997.386719 604.691406 1034.671875 666.960938 C 1050.511719 693.390625 1067.21875 715.921875 1084.839844 734.550781 C 1085.300781 735.050781 1085.421875 735.628906 1085.199219 736.261719 L 1069.820312 780.671875 C 1069.441406 781.761719 1069.089844 781.75 1068.800781 780.648438 C 1061.160156 753.539062 1053.988281 732.039062 1047.300781 716.140625 C 1026.828125 667.328125 1001.570312 613.769531 971.535156 555.449219 C 944.917969 503.78125 914.757812 453.371094 885.902344 402.859375 C 885.859375 402.789062 885.761719 402.761719 885.691406 402.800781 C 885.613281 402.820312 885.558594 402.921875 885.582031 403 C 890.894531 428.25 896.515625 453.46875 902.425781 478.679688 C 926.339844 580.398438 971.386719 678.160156 1033.820312 759.839844 C 1043.320312 772.230469 1053.171875 782.839844 1064.359375 792.609375 C 1065.308594 793.429688 1065.671875 794.738281 1065.25 795.929688 L 1050.121094 840.25 C 1049.550781 841.871094 1049 841.890625 1048.449219 840.25 C 1042.710938 823.390625 1035.691406 806.488281 1027.390625 789.558594 C 992.375 718.160156 953.558594 648.921875 910.898438 581.808594 C 888.230469 546.128906 865.320312 510.269531 842.183594 474.230469 C 841.773438 473.609375 841.679688 473.648438 841.863281 474.359375 C 848.082031 497.558594 854.5 520.921875 861.097656 544.488281 C 886.382812 634.671875 928.597656 717.5 987.75 793.011719 C 1006.230469 816.609375 1025.640625 836.449219 1045.960938 852.570312 C 1046.488281 852.980469 1046.660156 853.511719 1046.441406 854.140625 L 1029.980469 905.28125 C 1029.871094 905.609375 1029.410156 905.640625 1029.269531 905.320312 C 1020.320312 883.761719 1010.480469 863.21875 998.007812 842.601562 C 955.09375 771.519531 906.871094 704.21875 853.289062 640.679688 C 828.84375 611.730469 804.652344 582.621094 780.683594 553.339844 C 780.660156 553.328125 780.632812 553.320312 780.597656 553.328125 C 780.582031 553.351562 780.570312 553.378906 780.582031 553.421875 C 815.4375 643.171875 855.722656 727.960938 916.570312 806.039062 C 941.046875 837.449219 965.6875 865.539062 995.449219 892.578125 C 1005.800781 901.988281 1016.039062 909.820312 1026.179688 916.03125 C 1026.621094 916.308594 1026.769531 916.691406 1026.640625 917.191406 L 1010.910156 971.191406 C 1010.820312 971.53125 1010.339844 971.589844 1010.171875 971.28125 C 992.347656 939.5 972.371094 909.199219 950.226562 880.390625 C 908.808594 826.46875 870.589844 780.628906 835.53125 742.878906 C 800.710938 705.351562 766.113281 667.949219 731.757812 630.640625 C 731.613281 630.519531 731.601562 630.539062 731.671875 630.710938 C 754.582031 681.691406 781.011719 730.960938 810.953125 778.5 C 818.628906 790.660156 826.21875 801.859375 833.757812 812.089844 C 876.648438 870.28125 928.09375 928.269531 988.3125 971.441406 C 993.667969 975.28125 999.816406 979.089844 1006.738281 982.808594 C 1007.269531 983.101562 1007.460938 983.53125 1007.308594 984.101562 L 986.863281 1056.679688 C 986.710938 1057.25 986.484375 1057.273438 986.203125 1056.742188 C 969.566406 1026 952.089844 999.160156 933.792969 976.199219 C 862.496094 886.730469 781.226562 807.789062 699.53125 728.03125 C 699.476562 727.980469 699.386719 727.960938 699.339844 728.019531 C 699.265625 728.058594 699.246094 728.128906 699.289062 728.199219 C 716.878906 761.878906 735.644531 794.941406 755.613281 827.410156 C 803.046875 904.550781 863.703125 976.058594 934.472656 1032.785156 C 949.851562 1045.132812 966.261719 1055.640625 983.703125 1064.308594 C 984.371094 1064.644531 984.714844 1065.410156 984.527344 1066.144531 L 965.972656 1134.8125 C 965.5625 1136.324219 965.011719 1136.378906 964.328125 1134.972656 C 961.261719 1128.675781 958.0625 1121.617188 954.175781 1115.703125 C 877.128906 998.089844 767.417969 904.710938 665.460938 809.660156 C 665.425781 809.621094 665.382812 809.609375 665.347656 809.640625 C 665.316406 809.679688 665.308594 809.71875 665.320312 809.761719 C 679.734375 835.441406 697.257812 864.28125 710.429688 885.648438 C 768.996094 980.769531 846.226562 1067.230469 938.730469 1130.605469 C 946.472656 1135.90625 954.410156 1140.5625 962.550781 1144.527344 C 963.160156 1144.816406 963.488281 1145.503906 963.320312 1146.164062 L 946.273438 1214.945312 C 946.03125 1215.925781 945.640625 1215.976562 945.105469 1215.136719 C 931.945312 1194.753906 917.046875 1175.359375 900.378906 1156.941406 C 844.425781 1095.0625 783.820312 1038.117188 718.546875 986.160156 C 685.039062 959.460938 651.535156 932.710938 618.050781 905.890625 C 618 905.839844 617.9375 905.859375 617.882812 905.890625 C 617.835938 905.949219 617.835938 906.019531 617.871094 906.070312 C 641.523438 941.269531 666.457031 975.570312 692.652344 1008.976562 C 749.679688 1081.65625 823.128906 1151.09375 903.050781 1201.921875 C 915.914062 1210.097656 928.949219 1217.125 942.183594 1223.015625 C 943.714844 1223.695312 944.277344 1224.839844 943.882812 1226.476562 L 929.332031 1288.242188 C 929.25 1288.542969 928.867188 1288.609375 928.671875 1288.371094 C 906.207031 1258.597656 880.710938 1231.617188 852.167969 1207.421875 C 769.332031 1137.152344 675.96875 1080.972656 582.351562 1026.6875 C 581.863281 1026.382812 581.800781 1026.464844 582.164062 1026.910156 C 606.738281 1055.292969 632.828125 1082.777344 658.992188 1109.054688 C 718.398438 1168.710938 784.511719 1219.855469 857.355469 1262.492188 C 879.621094 1275.511719 902.808594 1286.59375 926.90625 1295.703125 C 927.570312 1295.957031 927.839844 1296.449219 927.679688 1297.148438 L 915.640625 1352.320312 C 915.5625 1352.636719 915.140625 1352.71875 914.960938 1352.453125 C 907.542969 1341.183594 898.777344 1330.957031 888.660156 1321.757812 C 816.15625 1255.8125 728.824219 1202.957031 641 1160.09375 C 613.433594 1146.644531 586.003906 1133.296875 558.683594 1120.050781 C 557.574219 1119.503906 557.453125 1119.664062 558.339844 1120.550781 C 652.492188 1213.804688 763.132812 1303.601562 889.148438 1349.839844 C 892.339844 1351.007812 898.890625 1352.621094 908.761719 1354.6875 C 909.507812 1354.855469 910.015625 1355.296875 910.300781 1355.996094 C 910.761719 1357.152344 911.648438 1357.65625 912.957031 1357.511719 C 913.628906 1357.421875 914.1875 1358.039062 914.046875 1358.714844 L 901.253906 1419.996094 C 901.183594 1420.335938 900.773438 1420.453125 900.535156 1420.203125 C 867.601562 1386.230469 823.988281 1360.160156 781.875 1339.207031 C 703.539062 1300.234375 622.992188 1273.179688 539.34375 1248.347656 C 538.976562 1248.242188 538.753906 1248.710938 539.050781 1248.941406 C 566.316406 1269.089844 594.34375 1288.152344 623.117188 1306.136719 C 625.722656 1307.769531 625.621094 1307.929688 622.851562 1306.613281 C 600.34375 1295.90625 577.976562 1284.941406 555.753906 1273.6875 C 555.457031 1273.539062 555.082031 1273.625 554.882812 1273.894531 C 554.671875 1274.1875 554.714844 1274.558594 554.957031 1274.804688 C 577.175781 1296.644531 600.234375 1317.882812 624.179688 1338.53125 C 669 1377.179688 719.742188 1411.902344 776.421875 1442.6875 C 814.539062 1463.398438 851.6875 1479.296875 887.863281 1490.367188 C 888.386719 1490.511719 888.59375 1490.851562 888.496094 1491.386719 L 880.402344 1537.347656 C 880.308594 1537.839844 879.730469 1538.027344 879.359375 1537.691406 C 852.011719 1512.515625 819.636719 1492.363281 786.78125 1475.160156 C 741.609375 1451.523438 694.832031 1431.605469 646.480469 1415.398438 C 617.082031 1405.539062 587.726562 1395.769531 558.40625 1386.058594 C 558.152344 1385.984375 557.992188 1386.304688 558.191406 1386.480469 C 638.796875 1452.832031 730.949219 1506.800781 830.1875 1539.757812 C 845.449219 1544.832031 861.03125 1548.523438 876.914062 1550.859375 C 877.730469 1550.984375 878.074219 1551.433594 877.949219 1552.25 L 870.972656 1598.269531 C 870.84375 1599.214844 870.398438 1599.363281 869.671875 1598.75 C 859.730469 1590.152344 851.808594 1584.015625 845.949219 1580.324219 C 783.714844 1541.214844 709.640625 1514.207031 636.558594 1498.007812 C 613.402344 1492.871094 590.363281 1488.207031 567.449219 1483.996094 C 566.558594 1483.828125 566.484375 1484.019531 567.214844 1484.570312 C 653.800781 1549.023438 761.054688 1597.722656 869.390625 1607.34375 C 869.480469 1607.359375 869.546875 1607.445312 869.53125 1607.535156 L 863.445312 1654.289062 C 863.324219 1655.277344 862.210938 1655.808594 861.367188 1655.292969 C 854.878906 1651.339844 847.882812 1648.035156 840.296875 1645.394531 C 801.492188 1631.875 760.632812 1622.285156 717.707031 1616.652344 C 675.484375 1611.113281 634.898438 1608.308594 595.949219 1608.246094 C 595.042969 1608.253906 594.988281 1608.503906 595.738281 1608.984375 C 631.171875 1631.378906 669.761719 1648.085938 711.445312 1659.082031 C 761.570312 1672.289062 811.652344 1673.378906 861.667969 1662.324219 C 862.40625 1662.175781 862.71875 1662.464844 862.621094 1663.210938 C 856.273438 1718.003906 851.90625 1772.667969 849.535156 1827.238281 L 848.472656 1854.121094 C 847.625 1868.285156 846.578125 1886.4375 856 1899.453125 C 857.296875 1901.230469 859.96875 1901.199219 861.210938 1899.363281 C 869.757812 1886.6875 868.882812 1866.851562 868.179688 1851.992188 L 868.394531 1824.535156 C 870.597656 1756.066406 876.171875 1687.578125 885.117188 1619.066406 C 885.183594 1618.496094 885.78125 1618.15625 886.3125 1618.382812 C 929.535156 1637.023438 980.605469 1641.90625 1027.210938 1640.476562 C 1085.839844 1638.675781 1142.328125 1628.390625 1199.140625 1614.292969 C 1200.769531 1613.886719 1200.769531 1613.570312 1199.070312 1613.339844 C 1112.738281 1601.582031 1028.761719 1590.875 941.605469 1594.898438 C 923.410156 1595.746094 905.457031 1598.378906 887.789062 1602.808594 C 887.023438 1603.007812 886.683594 1602.707031 886.808594 1601.910156 L 893.226562 1561.332031 C 893.335938 1560.605469 893.734375 1560.386719 894.429688 1560.667969 C 912.53125 1567.964844 930.613281 1573.300781 948.6875 1576.714844 C 1024.101562 1590.957031 1102.890625 1587.613281 1178.128906 1572.667969 C 1192.769531 1569.765625 1208.429688 1566.804688 1225.101562 1563.738281 C 1225.25 1563.71875 1225.269531 1563.5 1225.109375 1563.460938 C 1147.949219 1546.453125 1070.070312 1534.867188 990.804688 1536.507812 C 958.761719 1537.175781 927.40625 1541.316406 896.726562 1548.894531 C 895.859375 1549.101562 895.054688 1548.363281 895.199219 1547.476562 L 903.292969 1499.617188 C 903.464844 1498.59375 904.503906 1497.957031 905.503906 1498.28125 C 915.390625 1501.570312 925.570312 1504.480469 935.957031 1506.292969 C 1040 1524.316406 1141.609375 1501.136719 1240.710938 1470.925781 C 1240.871094 1470.882812 1240.851562 1470.675781 1240.699219 1470.65625 C 1204.28125 1467.285156 1167.75 1464.578125 1131.148438 1462.546875 C 1068.78125 1459.070312 1006.929688 1463.320312 945.613281 1475.300781 C 939.3125 1476.53125 926.382812 1480.183594 906.785156 1486.269531 C 905.914062 1486.542969 905.554688 1486.246094 905.714844 1485.332031 L 914.292969 1435.347656 C 914.40625 1434.660156 915.101562 1434.203125 915.78125 1434.367188 C 964.082031 1446.09375 1016.128906 1445.894531 1065.191406 1439.554688 C 1135.261719 1430.496094 1207.058594 1408.644531 1273.960938 1381.046875 C 1274.890625 1380.671875 1274.859375 1380.472656 1273.839844 1380.46875 C 1251.699219 1380.386719 1229.378906 1380.476562 1206.871094 1380.730469 C 1105.761719 1381.863281 1010.800781 1387.449219 917.433594 1423.347656 C 917.054688 1423.5 916.914062 1423.371094 916.992188 1422.988281 L 929.085938 1361.785156 C 929.277344 1360.84375 930.222656 1360.230469 931.175781 1360.460938 C 969.582031 1369.828125 1011.710938 1371.828125 1049.011719 1369.03125 C 1132.648438 1362.789062 1214.070312 1341.851562 1293.25 1306.1875 C 1293.511719 1306.070312 1293.429688 1305.667969 1293.128906 1305.648438 C 1290.898438 1305.535156 1288.320312 1306.40625 1286.328125 1306.390625 C 1245.660156 1306.128906 1204.980469 1306.519531 1164.320312 1307.5625 C 1104.730469 1309.09375 1046.011719 1316.855469 988.167969 1330.871094 C 969.121094 1335.488281 950.914062 1341.996094 932.988281 1349.269531 C 932.367188 1349.535156 932.136719 1349.324219 932.265625 1348.675781 L 947.648438 1277.582031 C 947.933594 1276.296875 948.691406 1275.847656 949.953125 1276.199219 C 959.058594 1278.761719 968.554688 1280.921875 978.445312 1282.6875 C 1069.25 1298.816406 1164.820312 1291.617188 1254.648438 1272.855469 C 1278.769531 1267.804688 1302.808594 1262.613281 1326.738281 1257.277344 C 1327.039062 1257.214844 1327.039062 1257.148438 1326.730469 1257.089844 C 1203.679688 1238.878906 1072.019531 1227.925781 951.472656 1265.15625 C 950.621094 1265.421875 950.296875 1265.113281 950.496094 1264.257812 L 963.980469 1207.507812 C 964.132812 1206.871094 964.753906 1206.457031 965.382812 1206.59375 C 992.179688 1211.375 1018.890625 1212.886719 1045.570312 1211.109375 C 1132.429688 1205.351562 1218.898438 1177.105469 1296.558594 1138.625 C 1313.488281 1130.246094 1330.378906 1121.667969 1347.25 1112.925781 C 1347.578125 1112.765625 1347.441406 1112.257812 1347.070312 1112.300781 C 1264.539062 1122.257812 1181.710938 1131.875 1100.691406 1151.367188 C 1051.570312 1163.179688 1007.171875 1178.164062 967.476562 1196.292969 C 966.824219 1196.589844 966.582031 1196.402344 966.757812 1195.699219 L 986.6875 1117.90625 C 986.863281 1117.199219 987.304688 1116.902344 988.027344 1117.054688 C 1004.390625 1120.539062 1019.828125 1122.5 1034.328125 1122.890625 C 1076.769531 1124.058594 1119.558594 1120.101562 1162.699219 1111.007812 C 1237.191406 1095.308594 1308.199219 1070.070312 1375.75 1035.273438 C 1375.921875 1035.183594 1375.851562 1034.949219 1375.660156 1034.960938 C 1346.441406 1037.195312 1317.300781 1039.496094 1288.210938 1041.839844 C 1224.488281 1046.992188 1161.589844 1057.148438 1099.488281 1072.308594 C 1061.488281 1081.601562 1024.789062 1094.492188 989.355469 1110.988281 C 988.441406 1111.398438 988.109375 1111.132812 988.375 1110.152344 L 1003.351562 1055.1875 C 1003.53125 1054.5 1004.210938 1054.054688 1004.910156 1054.144531 C 1009.109375 1054.644531 1013.609375 1056.34375 1017.308594 1056.644531 C 1052.78125 1059.425781 1084.460938 1058.148438 1112.339844 1052.832031 C 1205.859375 1035.015625 1291.070312 1000.792969 1374.730469 956.03125 C 1375.191406 955.800781 1375.171875 955.699219 1374.628906 955.75 C 1336.679688 960 1298.671875 964.820312 1260.589844 970.191406 C 1172.230469 982.671875 1087.351562 1004.945312 1007.039062 1044.488281 C 1006.210938 1044.898438 1005.898438 1044.648438 1006.148438 1043.753906 L 1024.171875 979.230469 C 1024.421875 978.328125 1025 978 1025.921875 978.179688 C 1087.949219 991.320312 1155.058594 985.75 1216.671875 973.441406 C 1280.351562 960.710938 1342.339844 942.328125 1402.679688 918.308594 C 1402.960938 918.199219 1403.800781 918.019531 1405.210938 917.78125 C 1405.800781 917.691406 1406.328125 917.5 1406.859375 917.199219 C 1407.691406 916.730469 1407.621094 916.46875 1406.660156 916.449219 C 1289.5 914.910156 1174.628906 919.011719 1062.511719 953.511719 C 1055.921875 955.539062 1044.640625 959.960938 1028.710938 966.738281 C 1027.78125 967.160156 1027.460938 966.871094 1027.75 965.878906 L 1045.550781 906.378906 C 1045.769531 905.660156 1046.230469 905.378906 1046.980469 905.550781 C 1085.320312 914.300781 1125.710938 917.449219 1168.148438 915.050781 C 1212.890625 912.511719 1254.128906 907.25 1291.890625 899.25 C 1338.558594 889.328125 1384.320312 877.449219 1429.128906 863.589844 C 1429.851562 863.359375 1429.828125 863.238281 1429.078125 863.179688 C 1301.460938 854.890625 1171.519531 852.839844 1049.160156 896.429688 C 1048.589844 896.628906 1048.390625 896.460938 1048.578125 895.871094 L 1066.480469 840.230469 C 1066.800781 839.28125 1067.738281 838.660156 1068.738281 838.820312 "/>
</svg>
